<?xml version="1.0" encoding="UTF-8" standalone="no"?>
<svg
   width="485.881724pt"
   height="191.916pt"
   viewBox="0 0 485.881724 191.916"
   version="1.1"
   id="svg55"
   sodipodi:docname="linear_element_interpolation.svg"
   inkscape:version="1.4.4 (dcaf3e7, 2026-05-05)"
   xmlns:inkscape="http://www.inkscape.org/namespaces/inkscape"
   xmlns:sodipodi="http://sodipodi.sourceforge.net/DTD/sodipodi-0.dtd"
   xmlns:xlink="http://www.w3.org/1999/xlink"
   xmlns="http://www.w3.org/2000/svg"
   xmlns:svg="http://www.w3.org/2000/svg"
   xmlns:rdf="http://www.w3.org/1999/02/22-rdf-syntax-ns#"
   xmlns:cc="http://creativecommons.org/ns#"
   xmlns:dc="http://purl.org/dc/elements/1.1/">
  <sodipodi:namedview
     id="namedview55"
     pagecolor="#ffffff"
     bordercolor="#000000"
     borderopacity="0.25"
     inkscape:showpageshadow="2"
     inkscape:pageopacity="0.0"
     inkscape:pagecheckerboard="0"
     inkscape:deskcolor="#d1d1d1"
     inkscape:document-units="pt"
     inkscape:zoom="1.3758621"
     inkscape:cx="320.52631"
     inkscape:cy="171.89223"
     inkscape:window-width="1800"
     inkscape:window-height="1102"
     inkscape:window-x="0"
     inkscape:window-y="39"
     inkscape:window-maximized="1"
     inkscape:current-layer="svg55" />
  <metadata
     id="metadata1">
    <rdf:RDF>
      <cc:Work>
        <dc:type
           rdf:resource="http://purl.org/dc/dcmitype/StillImage" />
        <dc:date>2026-09-22T00:54:30.999316</dc:date>
        <dc:format>image/svg+xml</dc:format>
        <dc:creator>
          <cc:Agent>
            <dc:title>Matplotlib v3.11.1, https://matplotlib.org/</dc:title>
          </cc:Agent>
        </dc:creator>
      </cc:Work>
    </rdf:RDF>
  </metadata>
  <defs
     id="defs1">
    <style
       type="text/css"
       id="style1">*{stroke-linejoin: round; stroke-linecap: butt}</style>
  </defs>
  <path
     d="M 0,191.916 H 485.88172 V 0 H 0 Z"
     style="fill:#ffffff"
     id="path1" />
  <g
     id="patch_2"
     transform="translate(59.417292,-21.804511)">
    <path
       d="m 244.41566,83.625781 q 17.4858,1.243992 33.29879,2.368975"
       clip-path="url(#p8782d88c37)"
       style="fill:none;stroke:#000000;stroke-width:1.5;stroke-linecap:round"
       id="path2" />
    <path
       d="m 272.71206,83.0323 5.00239,2.962456 -5.3714,2.224434 z"
       clip-path="url(#p8782d88c37)"
       style="stroke:#000000;stroke-width:1.5;stroke-linecap:round"
       id="path3" />
  </g>
  <g
     id="line2d_1">
    <path
       d="M 39.811034,134.766 H 429.44897"
       clip-path="url(#p8782d88c37)"
       style="fill:none;stroke:#2878b5;stroke-width:5;stroke-linecap:square"
       id="path4" />
  </g>
  <g
     id="line2d_2">
    <path
       d="M 39.811034,138.924 429.44897,50.22"
       clip-path="url(#p8782d88c37)"
       style="fill:none;stroke:#e87500;stroke-width:4;stroke-linecap:square"
       id="path5" />
  </g>
  <g
     id="PathCollection_1">
    <defs
       id="defs5">
      <path
         id="m59b5bf2e0a"
         d="m 0,5.477226 c 1.452577,0 2.845856,-0.577115 3.872983,-1.604243 C 4.900111,2.845856 5.477226,1.452577 5.477226,0 c 0,-1.452577 -0.577115,-2.845856 -1.604243,-3.872983 C 2.845856,-4.900111 1.452577,-5.477226 0,-5.477226 c -1.452577,0 -2.845856,0.577115 -3.872983,1.604243 C -4.900111,-2.845856 -5.477226,-1.452577 -5.477226,0 c 0,1.452577 0.577115,2.845856 1.604243,3.872983 C -2.845856,4.900111 -1.452577,5.477226 0,5.477226 Z"
         style="stroke:#2878b5" />
    </defs>
    <g
       clip-path="url(#p8782d88c37)"
       id="g6">
      <use
         xlink:href="#m59b5bf2e0a"
         x="39.811035"
         y="134.76601"
         style="fill:#2878b5;stroke:#2878b5"
         id="use5" />
      <use
         xlink:href="#m59b5bf2e0a"
         x="429.44897"
         y="134.76601"
         style="fill:#2878b5;stroke:#2878b5"
         id="use6" />
    </g>
  </g>
  <g
     id="text_1">
    <!-- $x_e$ -->
    <g
       transform="matrix(0.16,0,0,-0.16,31.411034,167.71225)"
       id="g8">
      <defs
         id="defs6">
        <path
           id="DejaVuSans-Oblique-5b"
           d="M 3841,3500 2234,1784 3219,0 H 2559 L 1819,1388 531,0 H -166 L 1556,1844 641,3500 h 659 l 672,-1266 1172,1266 z"
           transform="scale(0.015625)" />
        <path
           id="DejaVuSans-Oblique-48"
           d="m 3078,2063 q 10,50 14,103 5,53 5,106 0,381 -224,603 -223,222 -607,222 -428,0 -757,-271 -328,-270 -496,-767 z m 500,-450 H 903 q -19,-119 -25,-188 -6,-69 -6,-119 0,-434 267,-672 267,-237 755,-237 375,0 709,84 335,85 622,247 L 3116,159 Q 2806,34 2476,-28 2147,-91 1806,-91 1078,-91 686,257 294,606 294,1247 q 0,547 195,1017 195,470 574,839 243,231 579,356 336,125 714,125 594,0 945,-356 352,-356 352,-956 0,-144 -19,-308 -18,-164 -56,-351 z"
           transform="scale(0.015625)" />
      </defs>
      <use
         xlink:href="#DejaVuSans-Oblique-5b"
         transform="translate(0,0.3125)"
         id="use7" />
      <use
         xlink:href="#DejaVuSans-Oblique-48"
         transform="matrix(0.7,0,0,0.7,59.179688,-14.687451)"
         id="use8" />
    </g>
  </g>
  <g
     id="text_2">
    <!-- $x_{e+1}$ -->
    <g
       transform="matrix(0.16,0,0,-0.16,410.56897,167.71225)"
       id="g12">
      <defs
         id="defs8">
        <path
           id="DejaVuSans-e"
           d="M 2944,4013 V 2272 H 4684 V 1741 H 2944 V 0 H 2419 V 1741 H 678 v 531 h 1741 v 1741 z"
           transform="scale(0.015625)" />
        <path
           id="DejaVuSans-14"
           d="M 794,531 H 1825 V 4091 L 703,3866 v 575 l 1116,225 h 631 V 531 H 3481 V 0 H 794 Z"
           transform="scale(0.015625)" />
      </defs>
      <use
         xlink:href="#DejaVuSans-Oblique-5b"
         transform="translate(0,0.3125)"
         id="use9" />
      <use
         xlink:href="#DejaVuSans-Oblique-48"
         transform="matrix(0.7,0,0,0.7,59.179688,-14.687451)"
         id="use10" />
      <use
         xlink:href="#DejaVuSans-e"
         transform="matrix(0.7,0,0,0.7,115.88379,-14.687451)"
         id="use11" />
      <use
         xlink:href="#DejaVuSans-14"
         transform="matrix(0.7,0,0,0.7,188.17383,-14.687451)"
         id="use12" />
    </g>
  </g>
  <g
     id="text_3">
    <!-- $U_e$ -->
    <g
       transform="matrix(0.16,0,0,-0.16,12.978276,119.52)"
       id="g14">
      <defs
         id="defs12">
        <path
           id="DejaVuSans-Oblique-38"
           d="m 991,4666 h 634 L 1075,1831 q -34,-190 -48,-314 -14,-123 -14,-217 0,-431 240,-655 241,-223 706,-223 604,0 939,331 336,331 480,1078 l 550,2835 h 635 L 4000,1753 Q 3816,809 3300,359 2784,-91 1888,-91 1188,-91 780,261 372,613 372,1216 q 0,109 15,245 16,136 47,292 z"
           transform="scale(0.015625)" />
      </defs>
      <use
         xlink:href="#DejaVuSans-Oblique-38"
         transform="translate(0,0.09375)"
         id="use13" />
      <use
         xlink:href="#DejaVuSans-Oblique-48"
         transform="matrix(0.7,0,0,0.7,73.193359,-14.906201)"
         id="use14" />
    </g>
  </g>
  <g
     id="text_4">
    <!-- $U_{e+1}$ -->
    <g
       transform="matrix(0.16,0,0,-0.16,437.24172,41.904)"
       id="g18">
      <use
         xlink:href="#DejaVuSans-Oblique-38"
         transform="translate(0,0.09375)"
         id="use15" />
      <use
         xlink:href="#DejaVuSans-Oblique-48"
         transform="matrix(0.7,0,0,0.7,73.193359,-14.906201)"
         id="use16" />
      <use
         xlink:href="#DejaVuSans-e"
         transform="matrix(0.7,0,0,0.7,129.89746,-14.906201)"
         id="use17" />
      <use
         xlink:href="#DejaVuSans-14"
         transform="matrix(0.7,0,0,0.7,202.1875,-14.906201)"
         id="use18" />
    </g>
  </g>
  <g
     id="text_5"
     transform="translate(-21.259398,31.61654)">
    <!-- $u_h|_{\mathcal{K}_e}=U_e\phi_1^e+U_{e+1}\phi_2^e$ -->
    <g
       transform="matrix(0.16,0,0,-0.16,147.43,33.168)"
       id="g37">
      <defs
         id="defs18">
        <path
           id="DejaVuSans-Oblique-58"
           d="m 428,1388 410,2112 h 578 L 1006,1409 q -31,-153 -45,-262 -14,-109 -14,-181 0,-266 162,-412 163,-145 460,-145 462,0 799,312 338,313 441,842 l 385,1937 h 575 L 3091,0 h -575 l 115,550 Q 2388,244 2052,76 1716,-91 1338,-91 878,-91 622,161 366,413 366,863 q 0,93 15,234 16,141 47,291 z"
           transform="scale(0.015625)" />
        <path
           id="DejaVuSans-Oblique-4b"
           d="M 3566,2113 3156,0 h -578 l 410,2091 q 28,147 43,259 16,113 16,178 0,263 -166,409 -165,147 -462,147 -463,0 -802,-313 -339,-312 -439,-830 L 800,0 H 225 l 947,4863 h 575 L 1375,2950 q 219,294 559,464 341,170 716,170 463,0 717,-250 255,-250 255,-703 0,-112 -14,-240 -14,-128 -42,-278 z"
           transform="scale(0.015625)" />
        <path
           id="DejaVuSans-5f"
           d="M 1344,4891 V -1509 H 813 v 6400 z"
           transform="scale(0.015625)" />
        <path
           id="STIXNonUnicode-Italic-7d"
           d="m 1971,2874 39,-20 q 518,576 1132,1005 615,429 1133,429 346,0 541,-183 195,-182 195,-483 0,-268 -147,-464 -147,-195 -378,-195 -140,0 -230,96 -90,96 -90,231 0,121 54,191 55,71 122,93 68,23 122,74 54,51 54,134 0,96 -77,173 -76,77 -211,77 -441,0 -998,-397 -557,-397 -1114,-1069 218,-979 717,-1606 499,-627 1069,-627 218,0 467,131 250,131 397,342 L 4896,704 Q 4723,474 4569,326 4416,179 4128,48 3840,-83 3488,-83 2886,-83 2371,477 1856,1037 1690,1709 L 1434,813 Q 1280,262 1049,131 819,0 192,0 l 45,154 q 192,0 320,220 128,221 301,823 l 659,2317 q 25,76 25,147 0,192 -300,192 -71,0 -116,-7 l 32,160 q 724,77 1197,231 z"
           transform="scale(0.015625)" />
        <path
           id="DejaVuSans-20"
           d="M 678,2906 H 4684 V 2381 H 678 Z m 0,-1275 H 4684 V 1100 H 678 Z"
           transform="scale(0.015625)" />
        <path
           id="DejaVuSans-Oblique-369"
           d="M 2991,4863 2738,3572 q 625,0 946,-478 332,-488 166,-1347 Q 3681,888 3159,400 2653,-78 2028,-78 l -244,-1253 h -571 l 243,1253 q -622,0 -947,478 -331,488 -162,1347 166,859 687,1347 510,478 1132,478 l 253,1291 z M 2128,434 q 353,0 656,322 332,360 460,991 125,625 -75,991 -178,321 -531,321 z m -572,0 510,2625 q -350,0 -653,-321 -341,-366 -460,-991 -119,-631 75,-991 175,-322 528,-322 z"
           transform="scale(0.015625)" />
        <path
           id="DejaVuSans-15"
           d="M 1228,531 H 3431 V 0 H 469 v 531 q 359,372 979,998 621,627 780,809 303,340 423,576 121,236 121,464 0,372 -261,606 -261,235 -680,235 -297,0 -627,-103 -329,-103 -704,-313 v 638 q 381,153 712,231 332,78 607,78 725,0 1156,-363 431,-362 431,-968 0,-288 -108,-546 -107,-257 -392,-607 -78,-91 -497,-524 Q 1991,1309 1228,531 Z"
           transform="scale(0.015625)" />
      </defs>
      <use
         xlink:href="#DejaVuSans-Oblique-58"
         transform="translate(0,0.054688)"
         id="use19" />
      <use
         xlink:href="#DejaVuSans-Oblique-4b"
         transform="matrix(0.7,0,0,0.7,63.378906,-14.945264)"
         id="use20" />
      <use
         xlink:href="#DejaVuSans-5f"
         transform="translate(110.47852,0.054688)"
         id="use21" />
      <use
         xlink:href="#STIXNonUnicode-Italic-7d"
         transform="matrix(0.7,0,0,0.7,145.12695,-14.945264)"
         id="use22" />
      <use
         xlink:href="#DejaVuSans-Oblique-48"
         transform="matrix(0.49,0,0,0.49,202.42682,-25.445229)"
         id="use23" />
      <use
         xlink:href="#DejaVuSans-20"
         transform="translate(256.70416,0.054688)"
         id="use24" />
      <use
         xlink:href="#DejaVuSans-Oblique-38"
         transform="translate(359.97564,0.054688)"
         id="use25" />
      <use
         xlink:href="#DejaVuSans-Oblique-48"
         transform="matrix(0.7,0,0,0.7,433.16901,-14.945264)"
         id="use26" />
      <use
         xlink:href="#DejaVuSans-Oblique-369"
         transform="translate(478.96979,0.054688)"
         id="use27" />
      <use
         xlink:href="#DejaVuSans-Oblique-48"
         transform="matrix(0.7,0,0,0.7,552.38429,44.8)"
         id="use28" />
      <use
         xlink:href="#DejaVuSans-14"
         transform="matrix(0.7,0,0,0.7,544.93658,-32.229687)"
         id="use29" />
      <use
         xlink:href="#DejaVuSans-e"
         transform="translate(617.66749,0.054688)"
         id="use30" />
      <use
         xlink:href="#DejaVuSans-Oblique-38"
         transform="translate(720.93898,0.054688)"
         id="use31" />
      <use
         xlink:href="#DejaVuSans-Oblique-48"
         transform="matrix(0.7,0,0,0.7,794.13234,-14.945264)"
         id="use32" />
      <use
         xlink:href="#DejaVuSans-e"
         transform="matrix(0.7,0,0,0.7,850.83644,-14.945264)"
         id="use33" />
      <use
         xlink:href="#DejaVuSans-14"
         transform="matrix(0.7,0,0,0.7,923.12648,-14.945264)"
         id="use34" />
      <use
         xlink:href="#DejaVuSans-Oblique-369"
         transform="translate(970.39699,0.054688)"
         id="use35" />
      <use
         xlink:href="#DejaVuSans-Oblique-48"
         transform="matrix(0.7,0,0,0.7,1043.8115,44.8)"
         id="use36" />
      <use
         xlink:href="#DejaVuSans-15"
         transform="matrix(0.7,0,0,0.7,1036.3638,-33.148438)"
         id="use37" />
    </g>
  </g>
  <g
     id="text_6"
     transform="translate(100.30075,29.981202)">
    <!-- $u_h'=(U_{e+1}-U_e)/h_e$ -->
    <g
       transform="matrix(0.16,0,0,-0.16,166.74276,75.112)"
       id="g53">
      <defs
         id="defs37">
        <path
           id="Cmsy10-49"
           d="m 225,347 q -41,12 -41,62 l 782,2907 q 37,118 127,190 91,72 207,72 150,0 264,-99 114,-98 114,-248 0,-65 -34,-147 L 488,319 q -22,-44 -60,-44 -34,0 -108,31 -73,32 -95,41 z"
           transform="scale(0.015625)" />
        <path
           id="DejaVuSans-b"
           d="m 1984,4856 q -418,-718 -622,-1422 -203,-703 -203,-1425 0,-721 205,-1429 205,-708 620,-1424 h -500 q -468,735 -701,1444 -233,709 -233,1409 0,697 231,1403 232,707 703,1444 z"
           transform="scale(0.015625)" />
        <path
           id="DejaVuSans-c9c"
           d="M 678,2272 H 4684 V 1741 H 678 Z"
           transform="scale(0.015625)" />
        <path
           id="DejaVuSans-c"
           d="m 513,4856 h 500 q 468,-737 701,-1444 233,-706 233,-1403 0,-700 -233,-1409 -233,-709 -701,-1444 H 513 q 415,716 620,1424 205,708 205,1429 0,722 -205,1425 -205,704 -620,1422 z"
           transform="scale(0.015625)" />
        <path
           id="DejaVuSans-12"
           d="m 1625,4666 h 531 L 531,-594 H 0 Z"
           transform="scale(0.015625)" />
      </defs>
      <use
         xlink:href="#DejaVuSans-Oblique-58"
         transform="translate(0,0.115625)"
         id="use38" />
      <use
         xlink:href="#Cmsy10-49"
         transform="matrix(0.7,0,0,0.7,67.845052,43.865625)"
         id="use39" />
      <use
         xlink:href="#DejaVuSans-Oblique-4b"
         transform="matrix(0.7,0,0,0.7,63.378906,-34.323437)"
         id="use40" />
      <use
         xlink:href="#DejaVuSans-20"
         transform="translate(129.96094,0.115625)"
         id="use41" />
      <use
         xlink:href="#DejaVuSans-b"
         transform="translate(233.23242,0.115625)"
         id="use42" />
      <use
         xlink:href="#DejaVuSans-Oblique-38"
         transform="translate(272.24609,0.115625)"
         id="use43" />
      <use
         xlink:href="#DejaVuSans-Oblique-48"
         transform="matrix(0.7,0,0,0.7,345.43945,-14.884326)"
         id="use44" />
      <use
         xlink:href="#DejaVuSans-e"
         transform="matrix(0.7,0,0,0.7,402.14355,-14.884326)"
         id="use45" />
      <use
         xlink:href="#DejaVuSans-14"
         transform="matrix(0.7,0,0,0.7,474.43359,-14.884326)"
         id="use46" />
      <use
         xlink:href="#DejaVuSans-c9c"
         transform="translate(541.18652,0.115625)"
         id="use47" />
      <use
         xlink:href="#DejaVuSans-Oblique-38"
         transform="translate(644.45801,0.115625)"
         id="use48" />
      <use
         xlink:href="#DejaVuSans-Oblique-48"
         transform="matrix(0.7,0,0,0.7,717.65137,-14.884326)"
         id="use49" />
      <use
         xlink:href="#DejaVuSans-c"
         transform="translate(763.45215,0.115625)"
         id="use50" />
      <use
         xlink:href="#DejaVuSans-12"
         transform="translate(802.46582,0.115625)"
         id="use51" />
      <use
         xlink:href="#DejaVuSans-Oblique-4b"
         transform="translate(836.15723,0.115625)"
         id="use52" />
      <use
         xlink:href="#DejaVuSans-Oblique-48"
         transform="matrix(0.7,0,0,0.7,899.53613,-14.884326)"
         id="use53" />
    </g>
  </g>
  <g
     id="PathCollection_2">
    <defs
       id="defs53">
      <path
         id="m88f7e4692c"
         d="m 0,5.477226 c 1.452577,0 2.845856,-0.577115 3.872983,-1.604243 C 4.900111,2.845856 5.477226,1.452577 5.477226,0 c 0,-1.452577 -0.577115,-2.845856 -1.604243,-3.872983 C 2.845856,-4.900111 1.452577,-5.477226 0,-5.477226 c -1.452577,0 -2.845856,0.577115 -3.872983,1.604243 C -4.900111,-2.845856 -5.477226,-1.452577 -5.477226,0 c 0,1.452577 0.577115,2.845856 1.604243,3.872983 C -2.845856,4.900111 -1.452577,5.477226 0,5.477226 Z"
         style="stroke:#e87500" />
    </defs>
    <g
       clip-path="url(#p8782d88c37)"
       id="g55">
      <use
         xlink:href="#m88f7e4692c"
         x="39.811035"
         y="138.924"
         style="fill:#e87500;stroke:#e87500"
         id="use54" />
      <use
         xlink:href="#m88f7e4692c"
         x="429.44897"
         y="50.220001"
         style="fill:#e87500;stroke:#e87500"
         id="use55" />
    </g>
  </g>
  <defs
     id="defs55">
    <clipPath
       id="p8782d88c37">
      <rect
         x="8.64"
         y="8.64"
         width="451.98"
         height="174.636"
         id="rect55" />
    </clipPath>
  </defs>
</svg>
